<svg width="355" height="326" viewBox="0 0 355 326" fill="none" xmlns="http://www.w3.org/2000/svg">
<path d="M348.253 218.403C335.587 254.736 312.753 281.57 279.753 298.903C246.753 316.236 212.753 325.07 177.753 325.403C142.753 325.736 116.753 311.403 99.7535 282.403C82.7535 253.403 59.0868 226.403 28.7535 201.403C-1.57986 176.403 -7.91319 146.736 9.75347 112.403C27.4201 78.0698 53.4201 58.0698 87.7535 52.4031C122.087 46.7365 155.587 33.4031 188.253 12.4031C220.92 -8.59688 247.087 -2.93021 266.753 29.4031C286.42 61.7365 308.087 92.2365 331.753 120.903C355.42 149.57 360.92 182.07 348.253 218.403Z" fill="#0b1721"/>
</svg>
