<svg width="313" height="335" viewBox="0 0 313 335" fill="none" xmlns="http://www.w3.org/2000/svg">
<path d="M282 194C258.098 213.459 239.044 235.262 223.5 257C213.039 279.035 187.027 297.541 162 321.5C135.952 344.712 113.552 337.691 96.5 301C83.485 265.04 55.8523 244.413 28 229.5C-4.60892 217.166 -7.80085 195.567 14.5 172C33.66 148.599 56.368 128.075 68 115C82.8528 102.71 91.8051 79.3923 105 34.5C118.534 -8.33436 134.028 -11.5344 152.5 26.5C172.874 63.6633 206.924 77.8065 240.5 74C280.145 69.2616 301.718 84.1551 308.5 115C317.959 145.115 310.875 170.047 282 194Z" fill="#ffc021" fill-opacity="0.5"/>
</svg>
