<svg width="247" height="286" viewBox="0 0 247 286" fill="none" xmlns="http://www.w3.org/2000/svg">
<path d="M245.5 162C241.833 179.333 229.333 190 208 194C186.667 198 176.5 213.833 177.5 241.5C178.5 269.167 169.167 283.833 149.5 285.5C129.833 287.167 112.167 281.833 96.5 269.5C80.8333 257.167 64.8333 249.833 48.5 247.5C32.1667 245.167 21.6667 236 17 220C12.3333 204 10.5 188.833 11.5 174.5C12.5 160.167 9.83333 146.667 3.5 134C-2.83333 121.333 0.166668 110.667 12.5 102C24.8333 93.3333 29.5 78.1667 26.5 56.5C23.5 34.8333 30.5 23.3333 47.5 22C64.5 20.6667 79.8333 24.5 93.5 33.5C107.167 42.5 124.667 37.6667 146 19C167.333 0.333332 187 -4 205 6C223 16 222.667 35.6667 204 65C185.333 94.3333 188.5 113.5 213.5 122.5C238.5 131.5 249.167 144.667 245.5 162Z" fill="#d422f0" fill-opacity="0.5"/>
</svg>
