<svg width="297" height="351" viewBox="0 0 297 351" fill="none" xmlns="http://www.w3.org/2000/svg">
<path d="M260.087 185.723C223.087 195.057 205.587 207.723 207.587 223.723C209.587 239.723 205.087 253.723 194.087 265.723C183.087 277.723 168.253 297.223 149.587 324.223C130.92 351.223 110.253 357.89 87.5865 344.223C64.9199 330.557 48.4199 312.723 38.0865 290.723C27.7532 268.723 17.7532 248.723 8.08654 230.723C-1.58013 212.723 -2.58013 193.89 5.08654 174.223C12.7532 154.557 19.2532 136.057 24.5865 118.723C29.9199 101.39 35.2532 79.0567 40.5865 51.7234C45.9199 24.3901 60.9199 8.05674 85.5865 2.7234C110.253 -2.60993 133.587 -0.109929 155.587 10.2234C177.587 20.5567 197.087 32.0567 214.087 44.7234C231.087 57.3901 242.753 73.0567 249.087 91.7234C255.42 110.39 268.087 128.39 287.087 145.723C306.087 163.057 297.087 176.39 260.087 185.723Z" fill="#D47FFF" fill-opacity="0.5"/>
</svg>
